HIERARCHY
ROOT ROOT
{
	OFFSET 0.000000 56.020000 -5.659234
	CHANNELS 6 Xposition Yposition Zposition Xrotation Yrotation Zrotation 
	JOINT C_spine0001_bind_JNT
	{
		OFFSET 0.000000 1.618999 0.000000
		CHANNELS 3 Xrotation Yrotation Zrotation
		JOINT C_spine0002_bind_JNT
		{
			OFFSET 0.000000 4.942001 0.000001
			CHANNELS 3 Xrotation Yrotation Zrotation
			JOINT C_spine0003_bind_JNT
			{
				OFFSET 0.000000 4.942001 -0.000000
				CHANNELS 3 Xrotation Yrotation Zrotation
				JOINT C_neck0001_bind_JNT
				{
					OFFSET 0.000000 17.026009 -0.000000
					CHANNELS 3 Xrotation Yrotation Zrotation
					JOINT C_neck0002_bind_JNT
					{
						OFFSET 0.000000 3.249985 0.000000
						CHANNELS 3 Xrotation Yrotation Zrotation
						JOINT C_head_bind_JNT
						{
							OFFSET 0.000000 5.278008 0.000000
							CHANNELS 3 Xrotation Yrotation Zrotation
							End Site
							{
								OFFSET 0.000000 0.000000 0.000000
							}
						}
					}
				}
				JOINT L_clavicle_bind_JNT
				{
					OFFSET 4.590000 12.067001 0.834000
					CHANNELS 3 Xrotation Yrotation Zrotation
					JOINT L_armUpper0001_bind_JNT
					{
						OFFSET 7.812635 0.512001 -3.452945
						CHANNELS 3 Xrotation Yrotation Zrotation
						JOINT L_armLower0001_bind_JNT
						{
							OFFSET 15.265892 -6.552116 -0.058157
							CHANNELS 3 Xrotation Yrotation Zrotation
							JOINT L_hand0001_bind_JNT
							{
								OFFSET 14.747667 -6.369995 5.049225
								CHANNELS 3 Xrotation Yrotation Zrotation
								End Site
								{
									OFFSET 0.000000 0.000000 0.000000
								}
							}
						}
					}
				}
				JOINT R_clavicle_bind_JNT
				{
					OFFSET -4.590000 12.067001 0.834000
					CHANNELS 3 Xrotation Yrotation Zrotation
					JOINT R_armUpper0001_bind_JNT
					{
						OFFSET -7.812635 0.512001 -3.452945
						CHANNELS 3 Xrotation Yrotation Zrotation
						JOINT R_armLower0001_bind_JNT
						{
							OFFSET -15.265890 -6.552124 -0.058160
							CHANNELS 3 Xrotation Yrotation Zrotation
							JOINT R_hand0001_bind_JNT
							{
								OFFSET -14.746784 -6.369629 5.048937
								CHANNELS 3 Xrotation Yrotation Zrotation
								End Site
								{
									OFFSET 0.000000 0.000000 0.000000
								}
							}
						}
					}
				}
			}
		}
	}
	JOINT C_pelvis0001_bind_JNT
	{
		OFFSET -0.000000 0.000000 0.000000
		CHANNELS 3 Xrotation Yrotation Zrotation
		JOINT L_legUpper0001_bind_JNT
		{
			OFFSET 6.599999 -6.027000 0.539000
			CHANNELS 3 Xrotation Yrotation Zrotation
			JOINT L_legLower0001_bind_JNT
			{
				OFFSET -0.140713 -19.187443 0.040261
				CHANNELS 3 Xrotation Yrotation Zrotation
				JOINT L_foot0001_bind_JNT
				{
					OFFSET -0.132215 -18.028637 -1.138370
					CHANNELS 3 Xrotation Yrotation Zrotation
					JOINT L_foot0002_bind_JNT
					{
						OFFSET 0.007014 -4.693133 9.886524
						CHANNELS 3 Xrotation Yrotation Zrotation
						End Site
						{
							OFFSET 0.000000 0.000000 0.000000
						}
					}
				}
			}
		}
		JOINT R_legUpper0001_bind_JNT
		{
			OFFSET -6.599999 -6.027000 0.539000
			CHANNELS 3 Xrotation Yrotation Zrotation
			JOINT R_legLower0001_bind_JNT
			{
				OFFSET 0.140710 -19.187164 0.040550
				CHANNELS 3 Xrotation Yrotation Zrotation
				JOINT R_foot0001_bind_JNT
				{
					OFFSET 0.132215 -18.028633 -1.138362
					CHANNELS 3 Xrotation Yrotation Zrotation
					JOINT R_foot0002_bind_JNT
					{
						OFFSET -0.007014 -4.693128 9.886505
						CHANNELS 3 Xrotation Yrotation Zrotation
						End Site
						{
							OFFSET 0.000000 0.000000 0.000000
						}
					}
				}
			}
		}
	}
}
MOTION
Frames: 14
Frame Time: 0.033333
0.337823 45.987774 19.545473 0.054519 -41.965466 0.040640 -13.811828 40.229622 -10.500133 8.075382 -2.679047 3.316797 2.958657 -2.186091 2.137071 -0.258528 0.221237 -4.100764 2.886616 -21.943163 0.129659 38.436005 5.941984 9.064226 -8.399207 10.798808 5.934897 3.923214 21.019386 -51.155998 -20.719482 -10.302855 -23.529512 12.782313 -39.960941 -13.010337 -3.978527 -19.388498 2.916629 -13.452108 -8.990290 37.819382 -40.899334 9.365551 2.931397 17.767811 19.999193 7.983992 -8.814339 40.096024 -12.503728 0.917652 1.556810 23.772713 39.230145 -1.228348 0.726162 -32.107655 0.319625 -8.416846 -4.155593 -0.551640 0.667032 -29.534597 2.117273 -27.463835 14.141887 -4.335717 0.375075 33.365414 -10.079271 26.549236 3.837611 1.537456 0.928545 
0.476543 46.232780 19.325176 0.044504 -41.787033 0.043276 -13.666020 40.300529 -11.197347 8.010087 -3.250234 3.743499 3.225826 -2.532192 2.296634 0.155293 -0.027517 -4.031969 2.581848 -21.610291 -0.005969 38.103775 6.287435 9.086361 -8.316745 10.237367 5.792006 3.133112 19.879875 -50.858303 -20.763205 -11.660042 -24.891552 11.579138 -41.385536 -13.949104 -4.211166 -19.034588 3.193032 -14.230813 -8.282839 36.655731 -42.142647 12.185184 5.098291 18.065475 19.553408 7.862879 -8.973680 40.060089 -12.911206 0.568660 1.525066 23.992310 39.492912 -1.670075 1.144223 -31.584631 0.532207 -8.224777 -3.613230 -0.559492 0.885457 -30.066898 2.582035 -27.058706 15.928890 -4.458978 0.518872 32.070431 -10.496002 25.166204 2.340505 1.282298 1.106249 
0.528216 46.308468 19.247076 0.047163 -41.911961 0.052689 -13.558904 40.128777 -11.500330 7.950033 -3.464225 3.694767 3.417342 -2.874471 2.158497 0.206589 0.264793 -4.038133 2.832867 -21.731512 0.224135 38.189541 6.272799 9.210301 -8.291737 10.288872 5.981843 2.173418 18.109673 -50.475677 -20.986687 -12.901982 -26.455242 11.588640 -42.447620 -13.981173 -4.263861 -18.347385 3.212923 -14.623490 -7.939815 36.555164 -43.321159 14.153826 6.514603 17.446781 19.388393 8.221257 -9.059613 39.980488 -12.948849 0.348415 1.708671 23.849255 39.922421 -1.576249 1.338274 -31.798330 0.687688 -8.156327 -3.666386 -1.030414 0.767252 -29.834045 2.605622 -26.920668 16.073364 -4.143231 0.774666 31.809374 -10.462692 24.795282 1.190386 1.332861 1.015005 
0.422314 46.379074 19.210627 0.054420 -42.059959 0.044122 -13.597023 40.120445 -11.454436 7.941149 -3.612761 3.646702 3.460320 -2.953216 1.978124 0.092686 0.209182 -4.099790 2.767169 -21.671629 0.110441 38.806622 6.430351 9.009653 -8.244119 10.322116 5.764257 2.136553 16.583311 -50.334335 -20.829027 -14.062030 -27.319607 11.300366 -43.406746 -14.485710 -4.195999 -18.565424 3.407286 -14.634803 -7.154142 36.399075 -44.519115 15.114691 8.050764 16.950230 19.917749 8.337276 -9.344243 40.258392 -12.635033 0.744749 1.197451 24.105816 39.776512 -1.398045 0.752395 -31.208420 0.504666 -8.025033 -3.480932 -0.771299 0.734410 -29.051662 2.527939 -26.762863 16.303045 -4.360545 1.472766 30.350056 -10.760942 24.148954 0.706805 1.352161 0.887519 
0.246499 46.358528 19.183716 0.036425 -41.980644 0.041167 -13.992691 39.877598 -10.917596 8.006133 -3.645996 3.259399 3.585034 -3.198961 1.748235 0.108185 0.332946 -4.165312 2.646757 -21.706583 -0.052564 39.210567 6.682263 9.322949 -8.009870 10.297292 5.929845 1.341591 15.476709 -50.442345 -20.383455 -14.264808 -27.962376 11.709319 -43.881844 -13.958946 -4.080705 -18.565842 3.339116 -14.670410 -7.081396 36.559204 -45.120327 16.002659 9.418244 16.361588 19.895060 8.866535 -9.716105 40.117718 -12.250887 1.023188 1.175900 23.982182 39.916321 -1.462905 0.616854 -31.601030 0.899470 -8.038602 -3.331326 -0.823151 0.885281 -28.322811 2.594654 -26.602383 16.715166 -4.513338 2.253803 29.370615 -10.555346 23.534714 -0.202980 1.284239 1.272688 
-0.186919 46.246037 19.263969 0.043252 -42.371304 0.044040 -14.421676 39.753277 -10.179694 8.220492 -3.705780 2.759505 3.657578 -3.204026 1.656646 -0.308039 0.246489 -4.283674 2.784977 -21.867950 -0.155152 39.311108 6.877402 9.359889 -7.701319 10.251702 5.882859 0.917363 14.543687 -51.307804 -20.200020 -14.721024 -27.457735 11.139242 -44.051373 -14.638501 -4.279191 -18.807159 3.071297 -14.302907 -7.358972 37.133621 -45.537785 15.865081 10.981383 16.151236 20.595978 9.122749 -9.853005 40.049923 -11.885633 1.676076 0.866594 24.149168 39.749451 -1.032243 0.430978 -31.265213 1.319641 -8.417736 -3.743064 -0.697784 0.515749 -27.767000 2.729106 -25.572008 16.413992 -4.635480 2.227308 28.705801 -10.479954 23.618608 -0.601719 1.069779 1.360673 
-0.574427 46.164406 19.285162 0.032178 -42.302734 0.035637 -14.766593 39.291229 -9.574456 8.491177 -3.756415 2.386867 3.527277 -3.398908 1.224717 -0.652421 0.382078 -4.439748 3.280292 -21.701046 -0.047992 39.001015 6.885191 9.672185 -7.442083 10.253813 5.817399 0.693270 14.210555 -51.414452 -19.921309 -14.211211 -27.256704 10.711288 -44.180096 -15.720646 -4.072231 -19.004927 3.246825 -14.216277 -7.344150 37.793041 -45.427914 14.785649 11.537324 15.769741 21.719992 8.885769 -10.084482 39.531094 -11.403569 1.963447 0.878718 24.113604 39.836910 -0.881685 0.361378 -31.475702 1.649272 -8.951491 -3.910173 -0.567790 0.811259 -26.751841 2.498749 -25.383190 15.231347 -4.252303 2.693551 27.735779 -10.382703 23.072786 -0.364071 0.853874 1.682739 
-1.122112 45.922230 19.343334 0.049758 -41.991310 0.048042 -15.093780 38.710014 -9.010896 8.566465 -3.880826 1.967749 3.507351 -3.524787 1.010310 -0.888038 0.487078 -4.700607 3.167450 -21.841379 -0.215108 39.226994 6.879855 9.603233 -6.957027 10.362791 5.620735 0.808375 13.767567 -52.250771 -19.625496 -13.925579 -26.274197 10.508021 -44.500542 -16.367983 -4.065593 -19.157148 2.845111 -13.623772 -8.531612 38.898964 -44.925983 14.114858 12.481709 15.965491 22.455057 8.566446 -10.092795 38.725258 -11.064718 2.354227 0.725057 24.268768 39.798794 -0.850140 0.415324 -31.360996 2.170071 -9.353521 -3.984342 -0.514942 0.461650 -25.890350 2.308526 -24.490791 13.451539 -3.792525 2.444211 27.603157 -10.147253 23.351656 0.054252 0.794356 1.564019 
-1.510286 45.693298 19.498106 0.029121 -41.704216 0.030075 -14.789075 38.053757 -8.642179 8.408310 -4.083172 1.404197 3.386145 -3.572186 0.594390 -1.120944 0.440553 -4.689465 3.420414 -21.621027 -0.375844 39.026161 6.862224 9.770535 -6.678088 10.675510 5.622476 0.970722 13.700075 -52.197021 -19.494080 -13.053962 -25.735741 9.661462 -44.354847 -17.276348 -3.885211 -19.232649 2.839591 -13.183628 -9.325305 39.517014 -44.605061 12.781293 13.351306 15.921261 23.310492 7.685714 -10.083666 37.975693 -10.659559 2.678159 0.601251 23.971697 40.074776 -0.693987 0.306634 -31.656910 2.656646 -9.689270 -4.328780 -0.469910 0.440680 -24.669100 2.060436 -23.798429 11.309541 -3.063685 2.368641 27.054897 -10.231133 23.419161 0.683990 1.086130 1.656119 
-1.977615 45.553421 19.808491 0.044342 -41.764282 0.032416 -14.593255 37.767612 -8.183713 8.224386 -4.214887 0.902726 3.150260 -3.785951 0.163477 -1.133521 0.552661 -4.938411 3.493593 -21.619162 -0.398785 39.415005 6.484166 9.752789 -6.220124 11.145032 5.417308 0.745967 13.490716 -52.316174 -19.545446 -11.779274 -24.765871 9.329429 -44.399235 -17.870216 -3.406176 -19.303429 2.655262 -12.438478 -10.525049 40.609596 -44.741070 11.564822 14.239650 15.411485 24.232040 7.201549 -9.557076 37.460350 -10.334233 2.947848 0.573307 23.548382 40.144733 -0.841213 0.491934 -32.024189 3.232630 -10.217944 -4.447707 -0.506587 0.346165 -23.514158 1.921565 -22.584118 8.900627 -2.606991 1.794460 26.915466 -9.402463 24.041451 0.842114 1.226116 1.612465 
-2.508115 45.320755 20.165289 0.050044 -41.537045 0.041563 -14.213294 37.627304 -7.826112 8.126209 -4.425475 0.483504 3.144558 -3.859286 -0.244142 -1.079710 0.491089 -4.987979 3.533677 -21.818567 -0.187291 39.353210 6.411194 9.643614 -6.117347 11.507413 5.267749 0.665791 13.479977 -52.274784 -19.736837 -10.866257 -24.200951 8.642017 -44.130856 -18.493267 -3.273039 -19.496450 2.908704 -11.635216 -11.342093 41.162533 -45.107155 9.512395 14.602136 14.735074 25.439566 6.948510 -9.094660 37.323719 -9.866052 3.251416 0.282276 23.377882 40.001717 -1.176103 0.367583 -32.244518 3.366801 -10.631486 -4.563052 -0.666470 0.432555 -21.928904 1.550281 -21.750938 6.241915 -2.165078 1.535409 26.683022 -8.905129 24.250191 1.328906 1.264173 1.825874 
-3.056445 45.137638 20.520037 0.035174 -41.594189 0.023375 -14.034515 37.653915 -7.157367 8.046206 -4.633008 0.047863 3.144576 -3.967787 -0.509296 -1.091377 0.497961 -5.284900 3.770687 -21.856506 -0.103763 39.692825 6.189141 9.808880 -6.007725 11.695438 4.806556 0.725962 13.743478 -52.364956 -20.129511 -10.171998 -23.685432 8.054758 -43.759907 -19.255259 -3.057210 -19.602100 2.781348 -10.567086 -12.572688 42.104969 -45.512463 7.655113 14.957058 13.421754 26.501488 7.050402 -8.779526 37.336693 -9.158770 3.556548 0.426730 22.897415 39.880421 -1.637232 1.038455 -32.564178 3.484481 -11.356851 -4.074061 -0.547008 0.334529 -20.260010 1.502892 -20.777853 4.411587 -2.081802 0.978918 26.777712 -7.383646 25.151690 0.858393 1.177001 2.054456 
-3.564693 44.945698 20.836119 0.035461 -41.260113 0.036779 -13.386374 37.527489 -7.048861 7.834558 -4.736491 -0.337420 2.947071 -4.078304 -0.593405 -0.889802 0.452198 -5.310230 3.645012 -22.153933 -0.189814 39.718185 6.470631 9.463348 -5.853260 12.075441 4.384547 0.765890 13.799558 -52.389378 -20.059193 -9.587307 -23.388868 7.684688 -43.496075 -19.683630 -2.710541 -19.726318 2.523342 -9.792054 -13.289341 42.868122 -45.881008 5.651114 14.237571 12.062337 27.339237 7.876493 -8.262830 37.153721 -9.002694 3.483666 0.435552 22.908989 39.615604 -2.160355 1.531360 -32.362747 3.654283 -12.072375 -3.760439 -0.540462 0.405563 -18.536362 1.102754 -19.962919 2.741344 -1.907491 0.577060 26.378136 -6.169120 25.439285 0.650751 1.104595 1.840372 
-4.032124 44.760590 21.188326 0.038628 -41.450172 0.028419 -13.238787 37.841492 -6.477927 7.753157 -4.913542 -0.745078 2.670175 -4.211241 -0.938379 -1.004327 0.881080 -5.590868 3.945328 -22.311293 0.044113 40.383656 6.630559 9.381129 -5.549088 12.608396 4.306802 0.646049 14.260114 -52.491180 -20.112560 -9.803281 -23.519489 7.711447 -42.799816 -19.576225 -2.463622 -19.768803 2.369561 -8.714787 -13.825530 43.465408 -46.139748 4.056355 12.910262 11.019979 27.636265 8.432977 -7.858892 37.507839 -8.594249 3.664425 0.414658 22.659813 39.336792 -2.673393 2.244752 -33.024239 3.741724 -12.795671 -3.116699 -0.626374 0.363975 -16.041588 1.142868 -19.154812 0.470494 -2.014625 -0.169707 26.739111 -5.014358 25.044930 0.511330 0.999823 2.008417 
